Coordinates
version=1
nRows=8
nColumns=40
inDegrees=yes

Units are S.I. units (second, meters, Newtons, ...)
If the header above contains a line with 'inDegrees', this indicates whether rotational values are in degrees (yes) or radians (no).

endheader
time	pelvis_tilt	pelvis_list	pelvis_rotation	pelvis_tx	pelvis_ty	pelvis_tz	hip_flexion_r	hip_adduction_r	hip_rotation_r	knee_angle_r	knee_angle_r_beta	ankle_angle_r	subtalar_angle_r	mtp_angle_r	hip_flexion_l	hip_adduction_l	hip_rotation_l	knee_angle_l	knee_angle_l_beta	ankle_angle_l	subtalar_angle_l	mtp_angle_l	lumbar_extension	lumbar_bending	lumbar_rotation	arm_flex_r	arm_add_r	arm_rot_r	elbow_flex_r	pro_sup_r	wrist_flex_r	wrist_dev_r	arm_flex_l	arm_add_l	arm_rot_l	elbow_flex_l	pro_sup_l	wrist_flex_l	wrist_dev_l
      1.22000000	     -2.69809703	      2.75419725	    -83.51924586	      0.33782408	      0.87350166	      0.26566032	     20.97172007	     -9.82907233	    -14.87471187	     42.27926975	      0.73791246	      0.28868673	      0.00000000	      0.00000000	      1.83477002	      3.90245527	     -4.10991775	      9.91762942	      0.17309529	      4.77071319	      0.00000000	      0.00000000	     -5.33427827	      4.46870275	     -4.90498672	     -7.27766228	     -6.96805354	     -4.36593277	     33.97517908	     89.09653990	    -25.09340393	      4.53775354	     -5.59887202	     -9.07683724	     11.05719190	     35.82308733	     89.23072785	    -21.25675507	      1.80183896
      1.23000000	     -2.58181890	      2.69319919	    -83.50415549	      0.33782052	      0.87334621	      0.26711609	     21.42588199	     -9.92174693	    -14.94831433	     41.58714492	      0.72583261	      0.31127047	      0.00000000	      0.00000000	      1.65627600	      4.00843453	     -4.10622650	      9.93428492	      0.17338598	      4.86102035	      0.00000000	      0.00000000	     -5.48642617	      4.34014390	     -4.92655736	     -7.30103128	     -6.90836518	     -4.34676161	     34.04762142	     89.09355642	    -25.10004315	      4.51644717	     -5.62451347	     -9.11922975	     11.06387353	     35.81934963	     89.22462179	    -21.27672770	      1.78349964
      1.24000000	     -2.47180078	      2.64421834	    -83.48589008	      0.33781103	      0.87318959	      0.26893073	     21.79934664	     -9.98449674	    -15.03205351	     40.75350754	      0.71128289	      0.37839915	      0.00000000	      0.00000000	      1.46307150	      4.10934800	     -4.11033736	      9.95366785	      0.17372428	      4.96383306	      0.00000000	      0.00000000	     -5.54396245	      4.20768052	     -4.94688282	     -7.37884520	     -6.84151320	     -4.33532989	     34.10760419	     89.09053297	    -25.10791828	      4.49363714	     -5.70202547	     -9.15035426	     11.06441028	     35.78815022	     89.23963130	    -21.29911521	      1.76870654
      1.25000000	     -2.83990191	      2.17364032	    -83.16478034	      0.33818678	      0.87372513	      0.27148299	     21.36894140	     -9.52720379	    -15.66459202	     39.41726833	      0.68796111	      0.40919412	      0.00000000	      0.00000000	      0.80479132	      3.63118960	     -3.92968677	      9.95153276	      0.17368701	      5.20673383	      0.00000000	      0.00000000	     -5.87650363	      4.67739140	     -5.14565867	     -7.52235264	     -6.83398809	     -4.37968795	     34.13831570	     89.08512867	    -25.14970451	      4.29524273	     -5.73650860	     -9.05738926	     11.10554262	     35.58653530	     89.22815268	    -21.49816199	      1.56790107
      1.26000000	     -2.69661144	      2.12734111	    -83.14788116	      0.33813336	      0.87353862	      0.27332645	     21.73759263	     -9.61558379	    -15.76414691	     38.57448375	      0.67325175	      0.44411340	      0.00000000	      0.00000000	      0.61354132	      3.76202784	     -3.93591035	      9.97518122	      0.17409976	      5.30798720	      0.00000000	      0.00000000	     -5.94126044	      4.51377821	     -5.14195321	     -7.58725578	     -6.76794411	     -4.35052217	     34.23666043	     89.08334626	    -25.15545695	      4.26901368	     -5.78225631	     -9.08538086	     11.11561452	     35.58752390	     89.23141676	    -21.52898934	      1.54015843
      1.27000000	     -2.60646389	      2.09123587	    -83.14896296	      0.33800418	      0.87332724	      0.27512360	     22.11704416	     -9.64678242	    -15.92359261	     37.71755072	      0.65829545	      0.50009078	      0.00000000	      0.00000000	      0.43606008	      3.83079790	     -3.95045178	      9.98833604	      0.17432935	      5.40626919	      0.00000000	      0.00000000	     -6.00374299	      4.40817287	     -5.14129171	     -7.59790098	     -6.69414845	     -4.32045197	     34.35074877	     89.08330846	    -25.15629945	      4.23711413	     -5.80748988	     -9.09863066	     11.11867955	     35.57289826	     89.22605465	    -21.55438662	      1.52132069
      1.28000000	     -2.54705810	      2.05197621	    -83.10825878	      0.33792889	      0.87311552	      0.27727825	     22.39671087	     -9.61712339	    -16.10582479	     36.71005824	      0.64071138	      0.53605522	      0.00000000	      0.00000000	      0.24306233	      3.86927983	     -3.95985205	     10.02313380	      0.17493669	      5.52543801	      0.00000000	      0.00000000	     -6.00935738	      4.33486366	     -5.14153558	     -7.68942685	     -6.64300766	     -4.28855098	     34.45816708	     89.08038299	    -25.15495741	      4.19655391	     -5.87116410	     -9.09717853	     11.12203577	     35.54026451	     89.23415114	    -21.58355850	      1.50211715
      1.29000000	     -3.10038695	      1.57258955	    -82.81151218	      0.33806681	      0.87363222	      0.27967793	     21.95323740	     -8.95260351	    -16.97903090	     35.26800945	      0.61554289	      0.28297600	      0.00000000	      0.00000000	     -0.33911637	      3.15706205	     -3.75192348	     10.11762095	      0.17658580	      5.87116425	      0.00000000	      0.00000000	     -6.38663431	      5.01912851	     -5.32820345	     -7.70865568	     -6.66839900	     -4.27802323	     34.58164145	     89.07634241	    -25.12630471	      4.00563169	     -5.82618521	     -8.98335500	     11.21175421	     35.32489731	     89.22473122	    -21.73155076	      1.35603600
